<?xml version="1.0" encoding="UTF-8" standalone="no"?>
<!-- Created with Inkscape (http://www.inkscape.org/) -->

<svg
   version="1.1"
   id="svg9"
   width="582.59424"
   height="102.78937"
   viewBox="0 0 582.59424 102.78937"
   xmlns="http://www.w3.org/2000/svg"
   xmlns:svg="http://www.w3.org/2000/svg">
  <defs
     id="defs13">
    <clipPath
       clipPathUnits="userSpaceOnUse"
       id="clipPath545">
      <path
         d="M 0,612 H 792 V 0 H 0 Z"
         id="path543" />
    </clipPath>
  </defs>
  <g
     id="g513"
     transform="matrix(1.3333333,0,0,-1.3333333,-130.82788,-129.28021)">
    <g
       id="g539"
       transform="translate(-72.549621,-476.40918)">
      <g
         id="g541"
         clip-path="url(#clipPath545)">
        <g
           id="g547"
           transform="translate(306.954,351.997)">
          <path
             d="m 0,0 -3.342,-5.615 c -1.828,1.471 -4.011,2.574 -6.551,3.309 -2.54,0.735 -5.103,1.103 -7.687,1.103 -2.229,0 -4.211,-0.312 -5.949,-0.936 -2.63,-0.847 -3.944,-2.096 -3.944,-3.743 0,-1.114 0.645,-1.895 1.939,-2.34 1.291,-0.445 3.609,-0.802 6.951,-1.069 l 5.281,-0.401 c 4.589,-0.358 8.043,-1.248 10.361,-2.674 1.247,-0.802 2.273,-1.872 3.075,-3.209 1.069,-1.694 1.604,-3.587 1.604,-5.681 0,-3.788 -1.628,-6.796 -4.88,-9.024 -3.208,-2.096 -7.553,-3.142 -13.034,-3.142 -5.794,-0.134 -11.654,1.471 -17.58,4.813 l 2.406,5.615 c 1.826,-1.07 4.121,-1.95 6.885,-2.641 2.762,-0.691 5.503,-1.036 8.222,-1.036 2.406,0 4.589,0.311 6.551,0.936 2.54,0.758 3.81,1.982 3.81,3.677 0,1.38 -0.915,2.339 -2.741,2.874 -1.115,0.356 -3.098,0.645 -5.949,0.869 l -5.214,0.468 c -2.853,0.223 -5.003,0.511 -6.45,0.869 -1.45,0.356 -2.707,0.869 -3.777,1.537 -1.337,0.891 -2.385,2.106 -3.142,3.643 -0.758,1.537 -1.136,3.219 -1.136,5.047 0,4.1 1.671,7.241 5.013,9.425 3.119,1.96 6.996,2.941 11.631,2.941 2.54,0 5.181,-0.358 7.921,-1.07 C -6.985,3.832 -3.743,2.316 0,0"
             style="fill:#7b097e;fill-opacity:1;fill-rule:nonzero;stroke:none"
             id="path549" />
        </g>
        <g
           id="g551"
           transform="translate(338.5711,320.5136)">
          <path
             d="M 0,0 -14.171,23.462 V -1.136 h -7.085 v 37.432 h 8.221 l 13.77,-21.925 13.77,21.925 h 8.356 V -1.136 h -7.888 v 24.598 z"
             style="fill:#7b097e;fill-opacity:1;fill-rule:nonzero;stroke:none"
             id="path553" />
        </g>
        <g
           id="g555"
           transform="translate(397.1931,333.9492)">
          <path
             d="M 0,0 -7.019,12.032 -13.703,0 Z m 2.139,-5.214 h -17.847 l -4.278,-9.358 h -7.353 l 17.914,37.433 h 6.016 L 15.307,-14.572 H 7.42 Z"
             style="fill:#7b097e;fill-opacity:1;fill-rule:nonzero;stroke:none"
             id="path557" />
        </g>
        <g
           id="g559"
           transform="translate(428.6765,341.5025)">
          <path
             d="m 0,0 h 14.037 c 2.139,0 3.72,0.223 4.746,0.668 1.604,0.624 2.406,1.827 2.406,3.61 0,1.56 -0.558,2.65 -1.671,3.275 -1.115,0.624 -2.941,0.936 -5.481,0.936 L 0,8.489 Z M 0,-6.751 V -22.125 H -7.888 V 15.307 H 13.97 c 3.119,0 5.492,-0.167 7.119,-0.501 1.626,-0.334 3.085,-0.926 4.378,-1.771 2.495,-1.738 3.744,-4.613 3.744,-8.623 0,-3.032 -0.781,-5.392 -2.34,-7.086 C 25.31,-4.368 22.46,-5.593 18.315,-6.35 L 29.278,-22.125 H 20.387 L 9.759,-6.751 Z"
             style="fill:#7b097e;fill-opacity:1;fill-rule:nonzero;stroke:none"
             id="path561" />
        </g>
        <g
           id="g563"
           transform="translate(485.2253,349.9917)">
          <path
             d="M 0,0 V -30.614 H -7.886 V 0 H -22.325 V 6.818 H 14.438 V 0 Z"
             style="fill:#7b097e;fill-opacity:1;fill-rule:nonzero;stroke:none"
             id="path565" />
        </g>
        <g
           id="g567"
           transform="translate(514.5697,341.5025)">
          <path
             d="m 0,0 h 14.037 c 2.139,0 3.72,0.223 4.746,0.668 1.604,0.624 2.406,1.827 2.406,3.61 0,1.56 -0.558,2.65 -1.671,3.275 -1.114,0.624 -2.941,0.936 -5.481,0.936 L 0,8.489 Z M 0,-6.751 V -22.125 H -7.888 V 15.307 H 13.97 c 3.119,0 5.492,-0.167 7.119,-0.501 1.627,-0.334 3.085,-0.926 4.378,-1.771 2.496,-1.738 3.744,-4.613 3.744,-8.623 0,-3.032 -0.78,-5.392 -2.34,-7.086 C 25.31,-4.368 22.459,-5.593 18.315,-6.35 L 29.278,-22.125 H 20.387 L 9.759,-6.751 Z"
             style="fill:#7b097e;fill-opacity:1;fill-rule:nonzero;stroke:none"
             id="path569" />
        </g>
        <path
           d="m 561.561,319.377 h -7.888 v 37.433 h 7.888 z"
           style="fill:#7b097e;fill-opacity:1;fill-rule:nonzero;stroke:none"
           id="path571" />
        <g
           id="g573"
           transform="translate(593.5122,338.7619)">
          <path
             d="M 0,0 14.104,-19.385 H 5.013 L -5.08,-6.618 -15.04,-19.385 h -8.288 l 14.17,18.984 -13.368,18.449 h 9.358 L -3.944,6.083 5.013,18.048 h 8.757 z"
             style="fill:#7b097e;fill-opacity:1;fill-rule:nonzero;stroke:none"
             id="path575" />
        </g>
        <g
           id="g577"
           transform="translate(193.1669,364.0824)">
          <path
             d="M 0,0 15.685,-48.514 28.087,-8.39 37.936,-18.603 26.628,0 16.779,-27.722 Z"
             style="fill:#7b097e;fill-opacity:1;fill-rule:nonzero;stroke:none"
             id="path579" />
        </g>
        <g
           id="g581"
           transform="translate(173.4696,340.903)">
          <path
             d="M 0,0 C 0,19.743 16.005,35.747 35.747,35.747 55.49,35.747 71.494,19.743 71.494,0 71.494,-19.743 55.49,-35.747 35.747,-35.747 16.005,-35.747 0,-19.743 0,0 Z"
             style="fill:none;stroke:#7b097e;stroke-width:5.598;stroke-linecap:butt;stroke-linejoin:miter;stroke-miterlimit:10;stroke-dasharray:none;stroke-opacity:1"
             id="path583" />
        </g>
      </g>
    </g>
  </g>
</svg>
